<?xml version="1.0" encoding="utf-8"?>
<!-- Generator: Adobe Illustrator 16.0.0, SVG Export Plug-In . SVG Version: 6.00 Build 0)  -->
<!DOCTYPE svg PUBLIC "-//W3C//DTD SVG 1.1//EN" "http://www.w3.org/Graphics/SVG/1.1/DTD/svg11.dtd">
<svg version="1.1" id="Layer_1" xmlns="http://www.w3.org/2000/svg" xmlns:xlink="http://www.w3.org/1999/xlink" x="0px" y="0px"
	 width="500px" height="500px" viewBox="0 0 500 500" enable-background="new 0 0 500 500" xml:space="preserve">
<g>
	<path d="M318,246.333c15-13,30.666-40,30.666-40L336.332,200c2,7.667-28.665,38.333-28.665,38.333c-77.666-32-166.667,0-166.667,0
		C150.333,265.667,159.667,272,159.667,272c78,29.334,148.333-19,148.333-19c30,9.666,32,38,32,38c14.332-8.333,19.666-27,19.666-27
		L318,246.333z M251.664,266.824c0,0-22,11.666-44.334,5.332c0,0-46.667,4.334-55-24c0,0,14.667-9.666,31.333-9.666c0,0,9-3,15,0
		c0,0,20-18.333,54.667-6c0,0,30.334-1.667,48.667,13.333C301.997,245.824,267.997,270.157,251.664,266.824z"/>
	<g>
		<path d="M194.696,252.458c0,0,2-27.667,30.333-27.667c0,0,24.667-6,34,25.333c0,0,1.252,26-30.207,29
			C228.821,279.125,196.696,285.792,194.696,252.458z"/>
		<path fill="#FFFFFF" d="M202.857,256.795l5-15c0,0,5.667-6.333,8.667-5.333c0,0,5-0.667,7-2.667c0,0,4.333-2.999,8.667-1.666
			c0,0,4.666-2.333,9,1s4.334,3.333,4.334,3.333s9,9.333,4,20.333c0,0-13.668,15.334-17.668,14.334c0,0-12,3.426-19,0.047
			C212.857,271.176,201.19,267.795,202.857,256.795z"/>
		<path d="M218.049,252.705c0,0-1-6.871,7.667-10.205c0,0,9,2.084,10,8.542c0,0,0.007,8.457-7.496,10.457
			C228.22,261.5,218.383,261.576,218.049,252.705z"/>
		<path fill="#FFFFFF" stroke="#000000" stroke-miterlimit="10" d="M222.201,253.118c0,0-1.917-5.333,4.5-6.416
			c0,0,3.249-1.084,5.082,5.332c0,0,0.508,3.918-4.412,5.334C227.371,257.368,223.118,257.452,222.201,253.118z"/>
	</g>
</g>
</svg>
